<svg width="498" height="290" viewBox="0 0 498 290" fill="none" xmlns="http://www.w3.org/2000/svg">
<path d="M336.916 78.7382L334.572 74.7441L321.731 82.2832L324.075 86.2773L316.724 99.2266L312.093 99.2606L312.202 114.151L316.833 114.117L324.372 126.958L322.085 130.986L335.035 138.337L337.321 134.31L352.212 134.201L354.556 138.195L367.398 130.656L365.053 126.662L372.404 113.712L377.035 113.679L376.927 98.7887L372.296 98.8222L364.757 85.9812L367.043 81.9536L354.093 74.6024L351.807 78.6294L336.916 78.7382Z" stroke="#45B864" stroke-width="0.159232" stroke-miterlimit="10"/>
<path d="M344.477 94.5563C351.057 94.5085 356.429 99.803 356.477 106.382C356.525 112.962 351.23 118.334 344.651 118.382C338.071 118.43 332.699 113.136 332.651 106.556C332.603 99.9771 337.898 94.6046 344.477 94.5563Z" stroke="#45B864" stroke-width="0.159232" stroke-miterlimit="10"/>
<path d="M190.392 32.1049C190.392 32.1049 161.26 57.5656 193.543 89.9359L190.392 32.1049Z" fill="white"/>
<path d="M190.392 32.1049C190.392 32.1049 161.26 57.5656 193.543 89.9359" stroke="#45B864" stroke-width="0.21231" stroke-miterlimit="10" stroke-linecap="round" stroke-linejoin="round" stroke-dasharray="0.64 0.64"/>
<path d="M204.849 173.645C200.649 180.801 191.602 187.671 198.081 197.623C202.551 204.488 211.532 206.925 208.036 216.676C206.649 220.541 204 223.46 204.797 227.811C205.49 231.593 208.452 234.582 211.063 237.189C213.307 239.43 216.902 241.543 218.568 244.283C221.289 248.757 218.509 252.117 217.217 256.564C215.988 260.796 215.793 265.478 218.142 269.433C221.248 274.664 227.318 275.196 231.32 279.023C231.32 279.023 249.709 291.038 257.244 268.852C259.024 263.609 261.666 258.808 260.386 252.86C259.419 248.364 256.092 245.062 252.313 242.795C248.342 240.413 244.019 239.84 242.972 234.709C242.331 231.567 243.529 227.573 243.651 224.403C243.792 220.718 243.932 216.511 241.869 213.267C239.495 209.534 235.567 209.196 231.922 207.305C222.728 202.533 227.656 194.639 226.265 186.565C224.248 174.863 212.944 175.978 204.999 173.586L204.849 173.645Z" fill="#F0EF93" stroke="#D5E5F6" stroke-width="0.00824823" stroke-miterlimit="10"/>
<path d="M240.818 265.108L248.338 252.689" stroke="#3E61AD" stroke-width="0.0330035" stroke-miterlimit="10" stroke-linecap="round" stroke-linejoin="round"/>
<path d="M212.166 192.075L247.378 281.828" stroke="#A09F9F" stroke-width="0.21231" stroke-miterlimit="10" stroke-linecap="round" stroke-linejoin="round"/>
<path d="M213.666 223.13L227.574 231.349" stroke="#A09F9F" stroke-width="0.21231" stroke-miterlimit="10" stroke-linecap="round" stroke-linejoin="round"/>
<path d="M222.925 219.498L226.62 208.221" stroke="#A09F9F" stroke-width="0.21231" stroke-miterlimit="10" stroke-linecap="round" stroke-linejoin="round"/>
<path d="M490.453 177.996C482.288 179.467 471.183 177.073 467.847 188.47C465.547 196.333 469.543 204.737 459.866 208.431C456.029 209.895 452.089 209.784 449.305 213.222C446.886 216.21 446.545 220.405 446.267 224.083C446.027 227.246 446.763 231.351 445.768 234.4C444.144 239.378 439.784 239.455 435.567 241.37C431.555 243.192 427.874 246.093 426.401 250.45C424.453 256.213 428.001 261.167 427.703 266.696C427.703 266.696 430.555 288.477 452.3 279.752C457.439 277.69 462.803 276.568 466.484 271.725C469.268 268.063 469.607 263.39 468.868 259.045C468.09 254.48 465.711 250.825 468.924 246.691C470.891 244.158 474.704 242.467 477.188 240.496C480.079 238.204 483.362 235.572 484.481 231.894C485.769 227.661 483.469 224.46 482.531 220.462C480.167 210.377 489.368 208.977 494.59 202.665C502.16 193.515 493.954 185.661 490.596 178.073L490.453 177.996Z" fill="#F0EF93" stroke="#D5E5F6" stroke-width="0.00824823" stroke-miterlimit="10"/>
<path d="M444.448 264.846L458.771 262.468" stroke="#3E61AD" stroke-width="0.0330035" stroke-miterlimit="10" stroke-linecap="round" stroke-linejoin="round"/>
<path d="M481.228 195.549L436.027 280.71" stroke="#A09F9F" stroke-width="0.21231" stroke-miterlimit="10" stroke-linecap="round" stroke-linejoin="round"/>
<path d="M458.632 216.907L461.449 232.814" stroke="#A09F9F" stroke-width="0.21231" stroke-miterlimit="10" stroke-linecap="round" stroke-linejoin="round"/>
<path d="M467.417 221.569L478.383 217.031" stroke="#A09F9F" stroke-width="0.21231" stroke-miterlimit="10" stroke-linecap="round" stroke-linejoin="round"/>
<path d="M10.3446 177.598C5.61115 184.412 -3.93376 190.571 1.76676 200.988C5.69926 208.175 14.4682 211.291 10.2368 220.746C8.5596 224.495 5.69448 227.202 6.15732 231.602C6.55965 235.425 9.28517 238.632 11.689 241.43C13.7559 243.836 17.1788 246.218 18.631 249.077C21.0025 253.746 17.9739 256.884 16.3461 261.219C14.7973 265.345 14.2463 269.999 16.2855 274.121C18.9829 279.574 24.995 280.568 28.6935 284.689C28.6935 284.689 46.1108 298.073 55.3176 276.527C57.4932 271.436 60.4937 266.849 59.6715 260.821C59.0505 256.264 55.9859 252.719 52.3909 250.17C48.6129 247.491 44.3465 246.59 43.6937 241.394C43.294 238.212 44.794 234.32 45.1575 231.17C45.5806 227.505 46.0407 223.322 44.2308 219.93C42.1486 216.027 38.258 215.39 34.7682 213.226C25.9653 207.766 31.4811 200.271 30.7104 192.115C29.5936 180.292 18.2367 180.541 10.4975 177.549L10.3446 177.598Z" fill="#F0EF93" stroke="#D5E5F6" stroke-width="0.00824823" stroke-miterlimit="10"/>
<path d="M39.2261 271.541L47.6723 259.732" stroke="#3E61AD" stroke-width="0.0330035" stroke-miterlimit="10" stroke-linecap="round" stroke-linejoin="round"/>
<path d="M16.2329 196.533L44.4897 288.712" stroke="#A09F9F" stroke-width="0.21231" stroke-miterlimit="10" stroke-linecap="round" stroke-linejoin="round"/>
<path d="M15.3584 227.612L28.598 236.869" stroke="#A09F9F" stroke-width="0.21231" stroke-miterlimit="10" stroke-linecap="round" stroke-linejoin="round"/>
<path d="M24.8667 224.698L29.4117 213.735" stroke="#A09F9F" stroke-width="0.21231" stroke-miterlimit="10" stroke-linecap="round" stroke-linejoin="round"/>
<path d="M84.9065 176.171C77.2491 179.366 65.89 179.419 65.0864 191.267C64.5322 199.44 70.245 206.787 61.5891 212.478C58.1582 214.734 54.2862 215.474 52.308 219.43C50.5888 222.87 51.1599 227.039 51.6795 230.691C52.1265 233.83 53.7289 237.681 53.4136 240.873C52.8993 246.084 48.6578 247.098 44.952 249.876C41.426 252.519 38.4564 256.144 37.9564 260.716C37.2945 266.764 41.8263 270.838 42.7254 276.301C42.7254 276.301 50.1997 296.957 69.5565 283.754C74.1307 280.635 79.128 278.384 81.6805 272.862C83.6098 268.687 82.9358 264.049 81.2781 259.966C79.5361 255.675 76.4253 252.619 78.6721 247.889C80.0483 244.992 83.4071 242.52 85.4092 240.061C87.7377 237.2 90.3777 233.923 90.6787 230.089C91.0248 225.679 88.089 223.048 86.3131 219.346C81.8328 210.006 90.5163 206.658 94.2572 199.37C99.6796 188.805 89.9749 182.901 85.0626 176.214L84.9065 176.171Z" fill="#F0EF93" stroke="#D5E5F6" stroke-width="0.00824823" stroke-miterlimit="10"/>
<path d="M58.6792 270.89L72.154 265.484" stroke="#3E61AD" stroke-width="0.0330035" stroke-miterlimit="10" stroke-linecap="round" stroke-linejoin="round"/>
<path d="M79.6767 195.299L53.8721 288.195" stroke="#A09F9F" stroke-width="0.21231" stroke-miterlimit="10" stroke-linecap="round" stroke-linejoin="round"/>
<path d="M62.21 221.021L68.385 235.949" stroke="#A09F9F" stroke-width="0.21231" stroke-miterlimit="10" stroke-linecap="round" stroke-linejoin="round"/>
<path d="M71.792 223.683L81.5237 216.89" stroke="#A09F9F" stroke-width="0.21231" stroke-miterlimit="10" stroke-linecap="round" stroke-linejoin="round"/>
<path d="M266.185 126.106V144.053" stroke="white" stroke-width="0.0330035" stroke-miterlimit="10" stroke-linecap="round" stroke-linejoin="round"/>
<path d="M429.007 109.301H248.817V282.273H429.007V109.301Z" fill="#F2EFBD" stroke="#9F9E9F" stroke-width="0.0530774" stroke-miterlimit="10"/>
<path d="M201.075 127.006C192.074 146.209 219.659 167.362 219.659 167.362" stroke="white" stroke-width="0.0330035" stroke-miterlimit="10" stroke-linecap="round" stroke-linejoin="round"/>
<path d="M404.862 142.156H273.265V162.386H404.862V142.156Z" fill="white" stroke="#606161" stroke-width="0.0330035" stroke-miterlimit="10" stroke-linecap="round" stroke-linejoin="round"/>
<path d="M404.862 170.887H273.265V191.117H404.862V170.887Z" fill="white" stroke="#606161" stroke-width="0.0330035" stroke-miterlimit="10" stroke-linecap="round" stroke-linejoin="round"/>
<path d="M404.862 200.504H273.265V220.735H404.862V200.504Z" fill="white" stroke="#606161" stroke-width="0.0330035" stroke-miterlimit="10" stroke-linecap="round" stroke-linejoin="round"/>
<path d="M378.674 235.116H299.453V255.346H378.674V235.116Z" fill="#45B864"/>
<path d="M401.723 96.6922C415.7 96.6922 427.03 85.3619 427.03 71.3854C427.03 57.4088 415.7 46.0786 401.723 46.0786C387.747 46.0786 376.417 57.4088 376.417 71.3854C376.417 85.3619 387.747 96.6922 401.723 96.6922Z" fill="white" stroke="#45B864" stroke-width="0.21231" stroke-miterlimit="10" stroke-linecap="round" stroke-linejoin="round" stroke-dasharray="0.64 0.64"/>
<path d="M87.8667 282.213H468.94" stroke="#3E61AD" stroke-width="0.0330035" stroke-miterlimit="10" stroke-linecap="round" stroke-linejoin="round"/>
<path d="M442.672 282.213H398.534L392.533 233.056H448.672L442.672 282.213Z" fill="#45B864"/>
<path d="M452.407 233.056H388.798V244.258H452.407V233.056Z" fill="white" stroke="#606161" stroke-width="0.106155" stroke-miterlimit="10" stroke-linecap="round" stroke-linejoin="round"/>
<path d="M420.603 233.056V182.96" stroke="#606161" stroke-width="0.106155" stroke-miterlimit="10" stroke-linecap="round" stroke-linejoin="round"/>
<path d="M420.603 206.596C436.034 206.596 448.543 194.087 448.543 178.656C448.543 163.225 436.034 150.715 420.603 150.715C405.171 150.715 392.662 163.225 392.662 178.656C392.662 194.087 405.171 206.596 420.603 206.596Z" fill="white" stroke="#45B864" stroke-width="0.21231" stroke-miterlimit="10" stroke-linecap="round" stroke-linejoin="round" stroke-dasharray="0.64 0.64"/>
<path d="M436.477 194.536C445.247 185.767 445.247 171.548 436.477 162.779C427.708 154.009 413.489 154.009 404.72 162.779C395.95 171.548 395.95 185.767 404.72 194.536C413.489 203.306 427.708 203.306 436.477 194.536Z" fill="white" stroke="#45B864" stroke-width="0.21231" stroke-miterlimit="10" stroke-linecap="round" stroke-linejoin="round" stroke-dasharray="0.64 0.64"/>
<path d="M420.603 232.931C420.603 232.931 420.603 211.628 398.993 208.986C397.192 226.755 420.603 232.931 420.603 232.931Z" fill="#45B864"/>
<path d="M403.567 214.905L415.495 226.549" stroke="white" stroke-width="0.0330035" stroke-miterlimit="10" stroke-linecap="round" stroke-linejoin="round"/>
<path d="M420.707 233.174C420.707 233.174 420.707 211.871 442.316 209.229C444.117 226.998 420.707 233.174 420.707 233.174Z" fill="#45B864"/>
<path d="M437.742 215.148L425.814 226.792" stroke="white" stroke-width="0.0330035" stroke-miterlimit="10" stroke-linecap="round" stroke-linejoin="round"/>
<path d="M411.566 175.465V181.67C411.566 186.769 415.674 190.906 420.774 190.906C425.873 190.906 430.01 186.769 430.01 181.67V175.465H411.566ZM421.879 184.956H419.669V180.253H421.879V184.956Z" fill="#8B2680"/>
<path d="M426.54 173.685V172.484C426.54 169.305 423.963 166.729 420.785 166.729C417.607 166.729 415.03 169.305 415.03 172.484V173.685" stroke="#8B2780" stroke-width="0.106155" stroke-miterlimit="10"/>
<path d="M439.835 146.042C439.835 146.042 458.41 112.542 425.235 93.8705L439.835 146.042Z" fill="white"/>
<path d="M439.835 146.042C439.835 146.042 458.41 112.542 425.235 93.8705" stroke="#45B864" stroke-width="0.21231" stroke-miterlimit="10" stroke-linecap="round" stroke-linejoin="round" stroke-dasharray="0.64 0.64"/>
<path d="M323.34 77.0875L322.296 69.0898L319.81 69.4167L314.904 63.0098L315.867 60.6935L308.416 57.5975L307.458 59.9138L299.456 60.9578L297.932 58.9685L291.525 63.8702L293.053 65.8637L289.957 73.31L287.47 73.6369L288.514 81.6346L291.001 81.3119L295.903 87.7146L294.939 90.0309L302.39 93.127L303.354 90.8107L311.351 89.7666L312.879 91.7602L319.282 86.8543L317.758 84.8649L320.854 77.4139L323.34 77.0875ZM306.239 81.7604C302.704 82.2222 299.465 79.7307 299.003 76.2C298.542 72.6651 301.033 69.4258 304.568 68.964C308.102 68.5028 311.342 70.9937 311.804 74.5286C312.265 78.0641 309.774 81.3034 306.239 81.7604Z" fill="#8B2680"/>
<path d="M312.742 0.10614H200.82V32.1049H312.742V0.10614Z" fill="white" stroke="#45B864" stroke-width="0.21231" stroke-miterlimit="10" stroke-linecap="round" stroke-linejoin="round" stroke-dasharray="0.64 0.64"/>
<path d="M217.604 21.0346C220.326 21.0346 222.532 18.8279 222.532 16.1058C222.532 13.3837 220.326 11.1771 217.604 11.1771C214.882 11.1771 212.675 13.3837 212.675 16.1058C212.675 18.8279 214.882 21.0346 217.604 21.0346Z" fill="#F0EF93" stroke="#D5E5F6" stroke-width="0.00824823" stroke-miterlimit="10"/>
<path d="M233.198 21.0346C235.92 21.0346 238.127 18.8279 238.127 16.1058C238.127 13.3837 235.92 11.1771 233.198 11.1771C230.476 11.1771 228.269 13.3837 228.269 16.1058C228.269 18.8279 230.476 21.0346 233.198 21.0346Z" fill="#F0EF93" stroke="#D5E5F6" stroke-width="0.00824823" stroke-miterlimit="10"/>
<path d="M248.793 21.0346C251.515 21.0346 253.722 18.8279 253.722 16.1058C253.722 13.3837 251.515 11.1771 248.793 11.1771C246.071 11.1771 243.864 13.3837 243.864 16.1058C243.864 18.8279 246.071 21.0346 248.793 21.0346Z" fill="#F0EF93" stroke="#D5E5F6" stroke-width="0.00824823" stroke-miterlimit="10"/>
<path d="M264.388 21.0346C267.11 21.0346 269.317 18.8279 269.317 16.1058C269.317 13.3837 267.11 11.1771 264.388 11.1771C261.666 11.1771 259.459 13.3837 259.459 16.1058C259.459 18.8279 261.666 21.0346 264.388 21.0346Z" fill="#F0EF93" stroke="#D5E5F6" stroke-width="0.00824823" stroke-miterlimit="10"/>
<path d="M279.983 21.0346C282.705 21.0346 284.912 18.8279 284.912 16.1058C284.912 13.3837 282.705 11.1771 279.983 11.1771C277.261 11.1771 275.054 13.3837 275.054 16.1058C275.054 18.8279 277.261 21.0346 279.983 21.0346Z" fill="#F0EF93" stroke="#D5E5F6" stroke-width="0.00824823" stroke-miterlimit="10"/>
<path d="M300.506 16.1058C300.506 18.8276 298.3 21.0346 295.578 21.0346C292.855 21.0346 290.649 18.8276 290.649 16.1058C290.649 13.384 292.855 11.1771 295.578 11.1771C298.3 11.1771 300.506 13.3835 300.506 16.1058Z" fill="#F0EF93" stroke="#D5E5F6" stroke-width="0.00824823" stroke-miterlimit="10"/>
<path d="M409.539 71.7973C407.096 74.2404 403.135 74.2404 400.692 71.7973C398.25 69.3546 398.25 65.3935 400.692 62.9509C403.135 60.5082 407.096 60.5082 409.539 62.9509C411.982 65.394 411.982 69.3546 409.539 71.7973Z" fill="#45B864"/>
<path d="M405.115 67.3743L394.239 78.251L397.64 81.6522" stroke="#45B864" stroke-width="0.159232" stroke-miterlimit="10"/>
<path d="M399.796 77.6904L397.297 75.1921" stroke="#45B864" stroke-width="0.159232" stroke-miterlimit="10"/>
<path d="M407.467 69.7256C406.169 71.0244 404.063 71.0244 402.764 69.7256C401.465 68.4268 401.465 66.3212 402.764 65.0224C404.063 63.7236 406.169 63.7236 407.467 65.0224C408.766 66.3212 408.766 68.4274 407.467 69.7256Z" fill="white"/>
<path d="M135.196 260.862L124.491 271.874L114.091 261.794L123.55 249.623L135.196 260.862Z" fill="#45B864"/>
<path d="M133.511 284.781L111.07 262.884L115.476 258.368C115.476 258.368 119.224 257.793 120.63 261.325C120.63 261.325 121.709 267.579 128.129 267.63L132.957 279.304C132.957 279.304 135.009 283.245 133.511 284.781Z" fill="#45B864"/>
<path d="M178.567 126.607C178.567 126.607 171.76 163.207 165.551 204.278C147.603 221.581 128.915 240.233 114.96 255.719C114.96 255.719 118.834 264.713 130.663 270.021L159.899 244.993C159.881 245.14 159.862 245.288 159.844 245.435C167.876 239.025 188.637 222.918 196.15 216.947C197.331 216.009 198.147 214.689 198.459 213.214L203.84 134.257L178.567 126.607Z" fill="white" stroke="#606161" stroke-width="0.106155" stroke-miterlimit="10" stroke-linecap="round" stroke-linejoin="round"/>
<path d="M188.483 13.2529L186.794 28.2224C186.794 28.2224 186.505 32.3061 182.891 32.4128L182.963 39.9546C182.982 41.9981 181.54 41.7486 179.534 42.143C178.554 42.3356 177.399 42.4275 176.117 42.2826C172.053 41.824 170.195 38.5268 170.028 36.9642C169.862 35.4016 171.7 28.234 171.7 28.234L171.979 24.6418L174.006 10.8284L188.483 13.2529Z" fill="#F89F74"/>
<path d="M174.768 9.87561C174.768 9.87561 170.879 9.24611 169.363 12.8867C167.847 16.5273 169.092 18.6642 169.003 19.7905C168.914 20.9168 167.3 28.3959 172.674 28.4304L175.518 16.0968L174.231 10.9133L174.768 9.87561Z" fill="#165F30"/>
<path d="M176.83 21.5239C176.64 23.2075 175.121 24.4182 173.437 24.2288C171.754 24.0387 170.543 22.5197 170.732 20.836C170.922 19.1524 172.442 17.9417 174.125 18.1312C175.809 18.3212 177.02 19.8398 176.83 21.5239Z" fill="#F89F74"/>
<path d="M173.346 23.0223C172.712 22.9507 172.343 22.4273 172.258 21.9358C172.156 21.3546 172.407 20.8292 172.896 20.5972C173.618 20.2543 174.2 20.5925 174.49 20.834C174.398 20.473 174.22 20.1981 173.959 20.0139C173.396 19.6153 172.624 19.7724 172.616 19.774C172.57 19.7841 172.525 19.7544 172.515 19.7082C172.505 19.662 172.535 19.6169 172.581 19.6073C172.615 19.5999 173.432 19.4332 174.057 19.8743C174.418 20.1286 174.637 20.5319 174.709 21.0728L174.75 21.3759L174.558 21.137C174.531 21.1031 173.885 20.3164 172.969 20.7512C172.461 20.9921 172.359 21.524 172.425 21.9066C172.494 22.3037 172.782 22.7872 173.364 22.853C173.37 22.8535 173.375 22.8535 173.382 22.8546C173.428 22.8599 173.461 22.9013 173.457 22.9475C173.452 22.9942 173.411 23.0287 173.364 23.0239C173.357 23.0234 173.352 23.0229 173.346 23.0223Z" fill="#F07162"/>
<path d="M175.035 28.0296C175.035 28.0296 174.506 34.8601 182.93 36.4684L182.891 32.4133C182.891 32.4127 177.256 32.8984 175.035 28.0296Z" fill="#F07162"/>
<path d="M174.695 13.0581C174.695 13.0581 183.398 18.4449 189.508 14.1435C195.617 9.84213 194.408 8.66222 192.224 8.46796C190.038 8.27369 186.929 8.37932 184.777 7.07362C182.624 5.76844 177.841 4.44522 175.518 6.73127C173.195 9.01837 171.148 10.2407 174.695 13.0581Z" fill="#165F30"/>
<path d="M254.717 103.207L224.485 91.6764L216.436 63.3697L209.601 68.9099L199.497 74.8291L193.599 77.1067C193.599 77.1067 201.497 103.54 208.834 108.697C216.171 113.855 254.716 115.914 254.716 115.914V103.207H254.717Z" fill="#F7956E"/>
<path d="M205.077 43.0803C205.077 43.0803 213.775 49.8625 219.499 67.8919L222.87 78.3009C222.87 78.3009 213.08 84.7227 201.05 85.2503C189.021 85.7779 190.738 54.8704 192.598 50.5775C194.458 46.2846 198.661 39.9891 198.661 39.9891C198.661 39.9891 202.951 41.0289 205.077 43.0803Z" fill="#45B864"/>
<path d="M165.499 277.652L150.143 277.863L149.922 263.381L165.218 261.47L165.499 277.652Z" fill="#F89F74"/>
<path d="M181.277 280.259H149.922V273.95C149.922 273.95 152.203 270.921 155.675 272.468C155.675 272.468 160.816 276.19 165.446 271.742L177.055 276.727C177.056 276.726 181.277 278.114 181.277 280.259Z" fill="#45B864"/>
<path d="M148.468 122.115C148.468 122.115 144.361 216.813 148.956 272.613C148.956 272.613 157.682 278.111 169.649 273.352L181.4 162.864L190.264 139.444V100.894L148.468 122.115Z" fill="white" stroke="#606161" stroke-width="0.106155" stroke-miterlimit="10" stroke-linecap="round" stroke-linejoin="round"/>
<path d="M160.804 275.498C154.203 275.498 148.889 272.941 148.813 272.903L148.668 272.831L148.638 272.671C144.705 251.387 147.215 146.498 147.241 145.441C147.245 145.265 147.389 145.126 147.564 145.126C147.567 145.126 147.57 145.126 147.572 145.126C147.751 145.131 147.892 145.279 147.888 145.457C147.862 146.511 145.366 250.799 149.244 272.39C150.554 272.986 160.425 277.187 169.516 273.057C169.677 272.983 169.87 273.055 169.944 273.218C170.018 273.381 169.946 273.572 169.784 273.646C166.763 275.018 163.663 275.498 160.804 275.498Z" fill="#010101"/>
<path d="M144.276 87.8267L143.442 140.604C143.442 140.604 178.862 143.296 203.314 138.068C203.314 138.068 199.608 45.3255 198.887 41.2433C198.036 36.434 174.585 36.1575 164.791 37.3851C164.791 37.3851 158.828 36.4722 150.695 41.5501L144.276 87.8267Z" fill="white" stroke="#606161" stroke-width="0.106155" stroke-miterlimit="10" stroke-linecap="round" stroke-linejoin="round"/>
<path d="M131.21 162.64C133.909 165.925 134.497 162.601 134.497 162.601C136.126 164.215 136.924 163.881 137.306 163.321C137.585 162.912 137.633 162.387 137.469 161.92C136.95 160.434 135.352 155.905 134.185 153.131C134.39 151.195 137.64 151.927 139.287 152.853C140.135 153.331 141.561 153.411 140.197 151.255C139.082 149.493 135.305 146.773 135.305 146.773L137.368 133.584L121.755 137.087C121.755 137.087 121.501 149.442 121.45 151.304C121.399 153.164 123.305 159.469 124.878 161.408C127.733 164.926 127.959 162.783 127.959 162.783C131.266 166.159 131.21 162.64 131.21 162.64Z" fill="#F89F74"/>
<path d="M132.17 158.612C132.166 158.517 132.222 158.427 132.316 158.392C132.431 158.349 132.56 158.408 132.603 158.524C133.208 160.148 134.67 162.458 134.685 162.481C134.751 162.585 134.72 162.723 134.616 162.789C134.511 162.856 134.373 162.825 134.307 162.72C134.246 162.624 132.805 160.348 132.184 158.68C132.176 158.657 132.171 158.635 132.17 158.612Z" fill="#F07162"/>
<path d="M129.338 158.735C129.333 158.63 129.404 158.533 129.511 158.508C129.632 158.48 129.752 158.555 129.78 158.675C130.256 160.73 131.387 162.501 131.399 162.518C131.466 162.623 131.435 162.761 131.332 162.828C131.228 162.895 131.089 162.865 131.022 162.761C130.974 162.686 129.838 160.909 129.343 158.776C129.341 158.763 129.339 158.749 129.338 158.735Z" fill="#F07162"/>
<path d="M126.13 159.374C126.126 159.271 126.193 159.175 126.297 159.148C126.416 159.117 126.539 159.188 126.57 159.308C127.032 161.069 128.131 162.638 128.142 162.653C128.213 162.754 128.189 162.894 128.088 162.965C127.987 163.036 127.847 163.012 127.775 162.911C127.729 162.845 126.619 161.26 126.136 159.421C126.133 159.405 126.131 159.39 126.13 159.374Z" fill="#F07162"/>
<path d="M154.237 274.72C154.061 274.72 153.917 274.578 153.914 274.401L153.347 236.412C153.344 236.233 153.486 236.086 153.665 236.084C153.666 236.084 153.668 236.084 153.67 236.084C153.846 236.084 153.991 236.225 153.993 236.402L154.561 274.392C154.563 274.57 154.421 274.717 154.242 274.72C154.241 274.72 154.239 274.72 154.237 274.72Z" fill="#010101"/>
<path d="M168.751 36.7545C168.751 36.7545 171.527 41.98 176.142 41.9928C183.23 42.0119 184.412 36.7673 184.412 36.7673L176.582 36.4042L168.751 36.7545Z" fill="#F89F74"/>
<path d="M143.903 69.4582V144.732C143.903 144.732 163.252 148.489 172.639 144.732C172.639 144.732 172.583 39.9503 168.752 36.7551C168.278 36.7673 158.635 36.9525 151.748 37.8166C144.861 38.6802 143.903 69.4582 143.903 69.4582Z" fill="#45B864"/>
<path d="M184.3 36.7545C184.3 36.7545 186.241 130.759 188.156 144.731C188.156 144.731 195.968 145.27 205.93 141.684C205.93 141.684 204.137 43.6164 201.566 40.9986C198.996 38.3813 184.3 36.7545 184.3 36.7545Z" fill="#45B864"/>
<path d="M184.72 55.6092C184.545 55.6092 184.401 55.4691 184.396 55.2934L183.97 36.4042L184.326 36.4324C184.985 36.4839 200.497 37.754 205.078 43.0803C205.194 43.2157 205.178 43.42 205.044 43.5362C204.908 43.652 204.704 43.6371 204.588 43.5017C200.552 38.8092 187.01 37.3331 184.632 37.1086L185.043 55.2786C185.047 55.4569 184.905 55.605 184.727 55.6092C184.724 55.6092 184.722 55.6092 184.72 55.6092Z" fill="#010101"/>
<path d="M172.639 145.055C172.639 145.055 172.639 145.055 172.638 145.055C172.46 145.055 172.316 144.91 172.316 144.731C172.476 78.0201 170.651 54.8353 170.632 54.6092C170.618 54.4314 170.75 54.2754 170.928 54.2605C171.102 54.2504 171.262 54.3783 171.276 54.5561C171.295 54.7828 173.122 77.985 172.963 144.733C172.962 144.911 172.817 145.055 172.639 145.055Z" fill="#010101"/>
<path d="M206.091 141.981C206.089 141.981 206.086 141.981 206.084 141.981C205.905 141.977 205.764 141.829 205.767 141.65C206.398 112.441 201.264 49.276 201.212 48.6412C201.197 48.4634 201.329 48.3073 201.507 48.2925C201.696 48.2803 201.842 48.4103 201.856 48.5887C201.908 49.2235 207.045 112.422 206.414 141.665C206.411 141.841 206.266 141.981 206.091 141.981Z" fill="#010101"/>
<path d="M143.904 92.835C143.725 92.835 143.581 92.6901 143.581 92.5118V77.226C143.581 77.0477 143.725 76.9028 143.904 76.9028C144.082 76.9028 144.227 77.0477 144.227 77.226V92.5118C144.227 92.6901 144.082 92.835 143.904 92.835Z" fill="#010101"/>
<path d="M131.944 69.7687C131.944 69.7687 125.703 91.136 124.868 93.4539C122.982 98.6916 121.663 139.288 121.663 139.288L136.198 140.492L142.754 101.764L150.09 82.0147L131.944 69.7687Z" fill="#F89F74"/>
<path d="M154.506 37.5167C154.506 37.5167 148.37 37.6749 144.227 41.1217C140.084 44.5686 129.051 70.1307 125.187 84.8692L158.201 95.1636L154.506 37.5167Z" fill="#45B864"/>
<path d="M146.428 84.2679C146.396 84.2679 146.363 84.2631 146.33 84.2541L127.058 78.6369C126.873 78.5827 126.767 78.389 126.821 78.2038C126.875 78.0185 127.069 77.9134 127.254 77.966L146.526 83.5832C146.711 83.6373 146.817 83.831 146.763 84.0163C146.719 84.1686 146.58 84.2679 146.428 84.2679Z" fill="#010101"/>
<path d="M144.9 45.6248C144.967 45.6248 145.033 45.5945 145.076 45.5372C147.196 42.7103 150.661 41.5612 150.695 41.55C150.81 41.5129 150.874 41.3887 150.836 41.2735C150.799 41.1583 150.675 41.0946 150.56 41.1323C150.413 41.1801 146.931 42.3324 144.725 45.2734C144.652 45.3705 144.672 45.508 144.769 45.5807C144.808 45.6105 144.855 45.6248 144.9 45.6248Z" fill="#22131E"/>
<path d="M145.314 47.6571C145.381 47.6571 145.447 47.6269 145.49 47.5696C147.61 44.7427 151.075 43.5935 151.109 43.5824C151.225 43.5447 151.288 43.421 151.25 43.3058C151.212 43.1907 151.089 43.127 150.974 43.1647C150.827 43.2124 147.345 44.3647 145.139 47.3058C145.066 47.4029 145.086 47.5404 145.182 47.6131C145.222 47.6428 145.268 47.6571 145.314 47.6571Z" fill="#22131E"/>
<path d="M159.631 146.888C152.803 146.888 143.936 145.095 143.833 145.074C143.644 145.036 143.522 144.851 143.561 144.662C143.6 144.473 143.786 144.353 143.973 144.39C144.09 144.414 155.761 146.772 162.512 146.055C162.706 146.032 162.875 146.173 162.896 146.365C162.917 146.557 162.778 146.729 162.586 146.749C161.675 146.846 160.676 146.888 159.631 146.888Z" fill="#010101"/>
<path d="M149.239 92.7348L124.759 85.1012L124.851 84.7742C124.914 84.5503 131.221 62.2333 137.204 51.6226C137.712 50.7224 138.181 49.8769 138.623 49.0818C143.503 40.2901 144.975 37.6367 155.663 37.0624C155.863 37.0566 156.02 37.2004 156.03 37.3926C156.04 37.5852 155.892 37.7498 155.7 37.7599C145.399 38.3135 143.97 40.8882 139.233 49.4204C138.791 50.2166 138.321 51.0637 137.813 51.965C132.266 61.8034 126.421 81.8348 125.617 84.6362L148.718 91.8399C150.74 82.5869 152.683 76.9586 153.851 73.5781C153.987 73.1848 154.112 72.8212 154.226 72.4858C154.288 72.3032 154.486 72.2044 154.669 72.2676C154.852 72.3297 154.95 72.5282 154.888 72.7108C154.773 73.0473 154.647 73.412 154.511 73.8063C153.333 77.2176 151.362 82.9266 149.32 92.3611L149.239 92.7348Z" fill="#010101"/>
<path d="M153.095 77.252C152.994 77.252 152.894 77.209 152.825 77.1257C152.702 76.9771 152.723 76.7568 152.872 76.6337L155.458 74.4915C155.607 74.3688 155.827 74.389 155.95 74.5376C156.073 74.6862 156.053 74.9065 155.904 75.0297L153.318 77.1719C153.252 77.2255 153.173 77.252 153.095 77.252Z" fill="#010101"/>
<path d="M204.215 85.607C204.056 85.607 203.912 85.4977 203.875 85.3363C203.832 85.1484 203.949 84.961 204.137 84.9175C204.252 84.891 215.619 82.2424 222.451 78.147L217.937 64.4111C217.876 64.2279 217.977 64.0305 218.16 63.97C218.344 63.9089 218.541 64.0098 218.601 64.1924L223.288 78.4548L223.053 78.5992C216.152 82.8363 204.412 85.5714 204.294 85.5985C204.267 85.6043 204.241 85.607 204.215 85.607Z" fill="#010101"/>
<path d="M207.375 79.2382C207.219 79.2382 207.077 79.1336 207.037 78.976C206.988 78.7892 207.101 78.5986 207.288 78.5503C207.38 78.5264 216.542 76.1417 221.07 73.371C221.234 73.2707 221.45 73.3222 221.55 73.4867C221.651 73.6513 221.599 73.8662 221.434 73.9671C216.817 76.7924 207.842 79.1289 207.462 79.2265C207.433 79.2345 207.404 79.2382 207.375 79.2382Z" fill="#010101"/>
<path d="M59.8105 163.122C59.81 163.123 75.143 144.159 79.1737 142.616C83.2044 141.072 79.1737 162.78 79.1737 162.78L67.9569 178.41L59.8105 163.122Z" fill="#FAB59D"/>
<path d="M80.7691 132.003C80.7691 132.003 78.8292 129.706 76.0463 129.895C73.2635 130.084 70.6797 134.169 68.1001 135.088C68.1001 135.088 70.1744 138.336 73.2168 139.293C76.2592 140.249 82.1964 136.542 81.0053 132.454L80.7691 132.003Z" fill="#165F30"/>
<path d="M91.4864 121.331C91.4864 121.331 93.264 121.375 94.6101 123.18C95.9561 124.985 93.6961 137.793 89.6595 137.891C83.6326 138.037 87.8597 123.45 87.8597 123.45L91.4864 121.331Z" fill="#165F30"/>
<path d="M93.4589 129.788C93.5528 132.878 93.651 137.514 90.1314 138.437L90.0428 145.442L82.1895 143.607L82.7526 121.153C82.7526 121.153 84.9675 121.443 84.9659 121.625C84.9654 121.746 89.917 123.451 92.2221 125.015C93.6478 125.982 93.4005 127.862 93.4589 129.788Z" fill="#FAB59D"/>
<path d="M90.1212 140.515L90.1366 138.375C90.1366 138.375 86.522 138.137 84.314 136.723C84.314 136.723 87.3038 139.639 90.1212 140.515Z" fill="#ED7163"/>
<path d="M89.9158 125.059L88.0825 123.301L89.4408 125.339L89.9158 125.059Z" fill="#F39E76"/>
<path d="M93.3189 123.094C93.4118 122.225 92.9113 120.918 92.0408 120.839C92.0408 120.839 83.0712 118.742 80.1976 121.752C76.9949 125.107 76.5231 131.03 78.6833 134.845C79.928 137.042 82.3361 137.752 82.3361 137.752L83.3865 127.659C83.6732 127.814 90.6788 128.802 92.3396 126.284C92.8476 125.513 93.1809 124.384 93.3189 123.094Z" fill="#165F30"/>
<path d="M84.3512 131.628C84.3427 132.807 83.3794 133.756 82.2005 133.748C81.0212 133.739 80.0721 132.776 80.0806 131.596C80.0891 130.417 81.0519 129.468 82.2313 129.476C83.4107 129.486 84.3597 130.448 84.3512 131.628Z" fill="#FAB59D"/>
<path d="M82.0482 132.929C81.6002 132.925 81.303 132.587 81.2069 132.249C81.0933 131.851 81.2298 131.464 81.5551 131.266C82.0174 130.983 82.4357 131.154 82.6623 131.298C82.5721 131.07 82.433 130.903 82.2483 130.8C81.8317 130.567 81.3142 130.731 81.3088 130.733C81.2728 130.745 81.2345 130.725 81.2229 130.689C81.2112 130.653 81.2308 130.615 81.2664 130.603C81.2897 130.595 81.8465 130.419 82.3147 130.681C82.5854 130.832 82.7679 131.096 82.8582 131.469L82.9155 131.706L82.743 131.532C82.7218 131.512 82.2223 131.019 81.6257 131.383C81.2961 131.584 81.2648 131.955 81.338 132.212C81.415 132.482 81.6496 132.794 82.0594 132.792C82.0965 132.792 82.1278 132.823 82.1284 132.86C82.1284 132.898 82.0981 132.928 82.0604 132.929H82.0482Z" fill="#ED7163"/>
<path d="M62.3753 160.363C59.051 161.706 44.8857 190.18 44.8857 190.18L51.9971 193.894L71.0062 171.468C71.0067 171.468 65.699 159.02 62.3753 160.363Z" fill="#FAB59D"/>
<path d="M39.7633 198.682C40.0632 198.991 40.56 198.994 40.888 198.715L42.9267 196.977C42.9904 196.922 43.0822 196.915 43.1544 196.957C43.2611 197.02 43.2828 197.165 43.2 197.257L40.5562 200.201C40.2532 200.538 40.3243 201.003 40.7144 201.234C41.104 201.466 41.6709 201.379 41.9739 201.042L44.6697 198.04C44.7324 197.97 44.8353 197.954 44.916 198.002L44.9728 198.036C45.0662 198.091 45.097 198.212 45.0413 198.305L42.7574 202.154C42.5376 202.524 42.6252 203.013 42.9808 203.256C43.3704 203.523 43.8969 203.402 44.1337 203.002L46.4314 199.13C46.4866 199.037 46.6071 199.006 46.7005 199.061L46.8815 199.169C46.9664 199.219 47.0004 199.324 46.9616 199.415L45.3125 203.26C45.1427 203.656 45.2934 204.129 45.6772 204.324C46.0981 204.537 46.6044 204.349 46.7875 203.923C46.7875 203.923 49.6171 198.195 50.1325 197.335L51.1224 199.453C51.2328 199.885 51.6728 200.146 52.1054 200.036C52.5379 199.926 52.7991 199.486 52.6887 199.053L51.9965 193.894C51.9244 193.612 51.4244 193.313 50.9647 193.169C47.0593 190.429 46.4351 190.039 45.3141 189.397L42.8614 193.867C42.1539 195.157 41.2171 196.308 40.0977 197.262L39.8163 197.502C39.4644 197.804 39.4347 198.343 39.7633 198.682Z" fill="#FAB59D"/>
<path d="M71.0068 238.981L72.8263 283.958H84.7008L89.8095 238.981H71.0068Z" fill="#FAB59D"/>
<path d="M51.3637 222.371L45.9126 227.223L16.2662 236.154L12.6113 238.003L13.1946 245.405L17.1027 248.397C17.1027 248.397 55.6364 242.855 57.6889 241.268C59.7419 239.682 63.6813 234.688 63.6813 234.688C63.6813 234.688 70.5867 224.33 70.0267 222.37C69.4668 220.41 63.7748 216.48 63.3082 216.486C62.8417 216.492 51.3637 222.371 51.3637 222.371Z" fill="#FAB59D"/>
<path d="M76.4706 289.347L92.939 289.087C93.0876 289.062 93.2091 289.036 93.2972 289.008C94.8407 288.508 94.1868 286.748 94.1868 286.748L84.9853 281.447L80.7328 283.371C80.7328 283.371 73.7605 284.536 72.7632 282.558L72.9038 287.729C72.9044 287.728 72.3964 289.386 76.4706 289.347Z" fill="#45B864"/>
<path d="M48.7855 232.803C48.6555 232.803 48.5292 232.733 48.4649 232.609L45.818 227.534C45.7256 227.358 45.7941 227.139 45.9714 227.047C46.1481 226.955 46.3668 227.023 46.4586 227.2L49.1056 232.275C49.1979 232.452 49.1295 232.671 48.9522 232.762C48.8991 232.79 48.8418 232.803 48.7855 232.803Z" fill="#F07162"/>
<path d="M66.0883 177.812C66.0883 177.812 59.1686 202.987 37.5703 222.649C37.5703 222.649 47.6354 239.459 72.5621 245.289C93.5765 250.205 98.3429 248.398 98.3429 248.398L97.3042 183.058L66.0883 177.812Z" fill="#45B864"/>
<path d="M88.8995 141.65L102.441 154.708L99.23 168.646L80.6057 154.378L76.5718 145.571C76.5718 145.571 81.8386 140.838 82.1619 141.244C82.4857 141.651 85.6889 139.497 88.8995 141.65Z" fill="#FAB59D"/>
<path d="M78.5524 146.136C79.1421 144.311 80.1373 143.073 81.0959 142.252C82.2233 141.287 83.667 140.771 85.151 140.746C85.1606 140.746 85.1696 140.746 85.1791 140.746C78.846 139.907 75.9522 147.031 75.9522 147.031L62.0947 190.332C76.5583 201.61 96.7145 199.289 96.7145 199.289C96.9868 196.943 97.4974 169.212 97.5271 167.384C79.338 153.043 77.148 150.486 78.5524 146.136Z" fill="#45B864"/>
<g opacity="0.3">
<path d="M42.2124 228.424C42.8557 229.1 43.5691 229.811 44.3551 230.547C53.0253 221.884 59.6908 210.243 63.9184 201.554C69.0393 191.028 71.7977 182.429 71.8248 182.343L68.9507 181.428C68.9236 181.511 66.2183 189.94 61.1855 200.276C57.0635 208.742 50.5806 220.072 42.2124 228.424Z" fill="#4DB8D9"/>
</g>
<g opacity="0.3">
<path d="M69.2857 211.122C74.337 197.258 77.5864 184.872 77.6188 184.749L74.7006 183.987C74.5929 184.399 65.4174 219.19 53.7754 237.682C54.6119 238.192 55.4834 238.695 56.391 239.189C60.6112 232.471 64.9259 223.088 69.2857 211.122Z" fill="#4DB8D9"/>
</g>
<g opacity="0.3">
<path d="M85.7792 187.107L82.8483 186.395C82.7692 186.719 76.0862 214.2 68.8677 244.315C69.8146 244.593 70.7859 244.855 71.7811 245.1C79.006 214.958 85.7001 187.432 85.7792 187.107Z" fill="#4DB8D9"/>
</g>
<g opacity="0.3">
<path d="M89.8201 219.668C92.0356 203.282 92.9862 188.968 92.9958 188.825L89.9863 188.628C89.9571 189.071 87.6296 223.634 81.7471 247.222C82.8049 247.416 83.8012 247.586 84.7359 247.736C86.6159 240.171 88.3149 230.799 89.8201 219.668Z" fill="#4DB8D9"/>
</g>
<path d="M65.5282 179.604C65.5282 179.604 82.9031 185.857 97.1523 188.24L97.5276 188.302L97.4495 190.698C97.4495 190.698 84.9551 190.844 64.6143 182.442L65.5282 179.604Z" fill="white" stroke="#606161" stroke-width="0.106155" stroke-miterlimit="10" stroke-linecap="round" stroke-linejoin="round"/>
<path d="M97.3721 199.924C97.3705 199.924 97.3689 199.924 97.3668 199.924C97.2474 199.923 97.1508 199.825 97.1519 199.705L97.4682 162.371C97.4693 162.251 97.5706 162.154 97.6869 162.156C97.8063 162.157 97.9029 162.255 97.9018 162.375L97.5855 199.709C97.5844 199.827 97.4894 199.922 97.3721 199.924Z" fill="#010101"/>
<path d="M87.9985 158.501C87.9985 158.501 97.1167 167.828 100.201 169.2C103.285 170.572 131.105 161.662 131.105 161.662L126.723 155.599L105.156 156.913L95.6502 148.187L87.9985 158.501Z" fill="#FAB59D"/>
<path d="M69.5594 167.771L69.1157 167.629L75.2775 148.375C76.6877 143.967 78.1649 142.804 80.0969 141.642C82.5247 140.182 85.8531 140.033 87.5458 140.732C89.9789 141.737 97.0217 149.134 97.3205 149.449C97.4092 149.542 97.4054 149.689 97.312 149.778C97.2186 149.867 97.0716 149.863 96.9829 149.77C96.9102 149.693 89.7103 142.13 87.368 141.163C85.9837 140.591 82.7699 140.579 80.3368 142.042C78.4924 143.151 77.0816 144.264 75.7207 148.517L69.5594 167.771Z" fill="#010101"/>
<path d="M92.5991 163.704C92.545 163.704 92.4903 163.685 92.4463 163.647L80.9178 153.604C80.8207 153.52 80.8106 153.373 80.8956 153.276C80.9799 153.179 81.1275 153.169 81.2241 153.254L92.7525 163.296C92.8496 163.38 92.8597 163.527 92.7748 163.624C92.7286 163.677 92.6639 163.704 92.5991 163.704Z" fill="#010101"/>
<path d="M83.3096 155.612H80.2857C80.1568 155.612 80.0527 155.508 80.0527 155.379C80.0527 155.25 80.1568 155.146 80.2857 155.146H83.3096C83.4385 155.146 83.5426 155.25 83.5426 155.379C83.5426 155.508 83.4385 155.612 83.3096 155.612Z" fill="#010101"/>
<path d="M95.1938 248.681C86.4865 248.681 78.2202 247.507 70.5755 245.18C63.7232 243.095 57.3539 240.086 51.6454 236.235C41.919 229.674 37.4196 222.843 37.375 222.775L37.271 222.615L37.4079 222.482C37.5178 222.375 48.473 211.687 53.0583 204.168C53.1252 204.058 53.2691 204.023 53.3784 204.091C53.4883 204.157 53.5233 204.301 53.4559 204.411C49.1237 211.516 39.1696 221.403 37.8724 222.679C38.6027 223.734 43.0883 229.906 51.9257 235.863C60.8358 241.868 76.1173 248.871 98.335 248.166C98.4592 248.152 98.5712 248.262 98.5754 248.391C98.5796 248.519 98.4788 248.627 98.3503 248.63C97.2925 248.664 96.2389 248.681 95.1938 248.681Z" fill="#010101"/>
<path d="M87.8398 243.199C87.758 243.199 87.6789 243.156 87.6359 243.08C87.5733 242.967 87.6137 242.825 87.7262 242.763L94.8868 238.778C94.9999 238.715 95.1411 238.756 95.2037 238.868C95.2664 238.98 95.226 239.122 95.1135 239.185L87.9528 243.17C87.9167 243.19 87.878 243.199 87.8398 243.199Z" fill="#010101"/>
<path d="M91.4201 244.037C91.3442 244.037 91.2699 244 91.2253 243.932C91.1547 243.824 91.1844 243.679 91.2922 243.609L97.0245 239.84C97.1328 239.77 97.2767 239.8 97.3472 239.907C97.4178 240.015 97.3881 240.159 97.2804 240.23L91.548 243.998C91.5082 244.024 91.4636 244.037 91.4201 244.037Z" fill="#010101"/>
<path d="M137.265 154.996C138.44 153.29 136.804 153.462 136.804 153.462C137.341 152.482 137.077 152.153 136.764 152.05C136.534 151.974 136.282 152.022 136.085 152.162C135.459 152.604 133.553 153.963 132.41 154.883C131.476 155.048 131.381 153.427 131.593 152.531C131.703 152.069 131.548 151.391 130.722 152.319C130.047 153.078 129.281 155.214 129.281 155.214L124.041 156.002L126.568 162.863C126.568 162.863 132.389 161.32 133.268 161.093C134.146 160.866 136.842 159.125 137.539 158.128C138.802 156.317 137.768 156.5 137.768 156.5C138.905 154.496 137.265 154.996 137.265 154.996Z" fill="#FAB59D"/>
<path d="M135.249 155.088C135.205 155.103 135.155 155.089 135.126 155.05C135.091 155.001 135.101 154.933 135.149 154.897C135.828 154.395 136.713 153.399 136.722 153.39C136.762 153.345 136.831 153.341 136.876 153.38C136.921 153.42 136.926 153.489 136.886 153.534C136.849 153.576 135.977 154.557 135.279 155.072C135.27 155.079 135.259 155.085 135.249 155.088Z" fill="#F07162"/>
<path d="M135.688 156.398C135.639 156.415 135.584 156.395 135.558 156.348C135.529 156.295 135.548 156.229 135.601 156.199C136.499 155.7 137.176 154.932 137.183 154.924C137.223 154.878 137.292 154.874 137.337 154.913C137.382 154.953 137.387 155.022 137.347 155.067C137.319 155.1 136.639 155.871 135.707 156.39C135.7 156.394 135.695 156.396 135.688 156.398Z" fill="#F07162"/>
<path d="M136.419 157.815C136.371 157.831 136.318 157.812 136.291 157.767C136.26 157.716 136.277 157.648 136.329 157.618C137.092 157.164 137.679 156.439 137.685 156.431C137.722 156.384 137.791 156.377 137.838 156.414C137.885 156.452 137.893 156.52 137.854 156.568C137.829 156.598 137.237 157.331 136.44 157.805C136.434 157.809 136.427 157.812 136.419 157.815Z" fill="#F07162"/>
<path d="M130.663 270.371C130.615 270.371 130.566 270.361 130.52 270.34C118.531 264.908 114.676 255.944 114.638 255.854L114.551 255.646L114.704 255.482C114.937 255.232 138.046 230.412 146.539 222.384C146.68 222.252 146.9 222.257 147.033 222.398C147.166 222.538 147.159 222.759 147.019 222.892C138.913 230.553 117.444 253.566 115.375 255.786C116.016 257.129 120.079 264.842 130.808 269.703C130.984 269.782 131.062 269.989 130.982 270.165C130.924 270.295 130.796 270.371 130.663 270.371Z" fill="#010101"/>
<path d="M118.476 261.375C118.387 261.375 118.299 261.341 118.231 261.275C118.093 261.14 118.091 260.919 118.226 260.781L139.622 238.944C139.757 238.806 139.978 238.804 140.116 238.939C140.254 239.074 140.256 239.295 140.121 239.433L118.725 261.27C118.657 261.34 118.566 261.375 118.476 261.375Z" fill="#010101"/>
<path d="M244.032 99.1316C244.032 99.1316 253.345 102.933 254.717 103.207C256.09 103.482 264.763 101.455 266.776 103.285C268.79 105.115 270.796 112.953 270.451 113.843C270.258 114.34 267.245 115.138 266.056 115.138C264.866 115.138 258.139 111.308 258.139 111.308L253.648 113.314L240.935 112.582L244.032 99.1316Z" fill="#F7956E"/>
<path d="M9.39596 239.708L9.28662 256.178C9.30732 256.327 9.33121 256.449 9.35774 256.538C9.8227 258.092 10.8105 257.592 10.8105 257.592L17.1028 248.397L15.2748 244.103C15.2748 244.103 14.2669 237.106 16.2663 236.154L11.0939 236.178C11.0939 236.178 9.44798 235.633 9.39596 239.708Z" fill="#45B864"/>
</svg>
